<?xml version="1.0" encoding="UTF-8" standalone="no"?>
<!DOCTYPE svg PUBLIC "-//W3C//DTD SVG 20010904//EN"
              "http://www.w3.org/TR/2001/REC-SVG-20010904/DTD/svg10.dtd">

<svg xmlns="http://www.w3.org/2000/svg" xmlns:xlink="http://www.w3.org/1999/xlink"
     width="12.7778in" height="3.48611in"
     viewBox="0 0 920 251">
   <defs>
      <linearGradient id="Gradient" x1="1" x2="0" y1="0" y2="1">
        <stop offset="0%" stop-color="skyblue"/>
        <stop offset="100%" stop-color="darkblue"/>
      </linearGradient>
   </defs>
  <a xlink:href="../index.html">
  <path id="Text"
        fill="mediumblue" stroke="none" stroke-width="1"
        d="M 522,0.44
           C 513.11,2.08 505.67,4.30 499.18,11.09
             484.12,26.85 483.93,60.20 499.18,75.91
             506.41,83.36 517.80,86.88 528,87
             540.02,87.13 552.31,84.22 560.68,74.91
             577.28,56.44 574.42,18.11 552,5.36
             543.15,0.32 531.96,-0.84 522,0.44 Z
           M 406,1
           C 406,1 406,86 406,86
             406,86 423,86 423,86
             423,86 423,51 423,51
             426.88,51 431.35,50.72 435,52.15
             441.28,54.60 447.49,63.46 451.25,69
             453.55,72.37 459.54,83.29 462.33,84.98
             464.04,86.01 466.08,85.96 468,86
             468,86 482,86 482,86
             478.48,79.43 465.72,58.75 460.91,54.11
             458.81,52.08 457.51,51.35 455,50
             461.10,46.45 465.76,46.14 470.44,39.98
             478.92,28.85 475.53,9.03 462,3.48
             455.29,0.73 446.17,1 439,1
             439,1 406,1 406,1 Z
           M 576,86
           C 579.88,86 591.61,86.98 594.16,84.40
             599.88,78.62 595.54,67.23 608,67
             608,67 633,67 633,67
             633.62,71.04 636.67,83.67 640.39,85.43
             642.38,86.36 654.03,86 657,86
             657,86 633.42,21 633.42,21
             632.10,17.45 627.93,3.73 625.49,2.02
             623.99,0.97 621.76,1.04 620,1
             620,1 614,1 614,1
             611.98,1.01 609.15,0.87 607.42,2.02
             604.73,3.81 600.63,17.31 599.31,21
             599.31,21 576,86 576,86 Z
           M 666,1
           C 666,1 666,86 666,86
             666,86 689,86 689,86
             703.34,86 718.29,87.20 728.67,74.98
             742.08,59.21 741.45,23.43 725.96,9.18
             719.21,2.97 710.94,1.11 702,1
             702,1 666,1 666,1 Z
           M 423,37
           C 423,37 423,15 423,15
             428.91,15 447.65,14.14 451.98,16.31
             459.84,20.26 459.61,30.95 452.95,34.86
             447.53,38.05 429.95,37 423,37 Z
           M 525,15.30
           C 533.33,14.47 541.67,15.70 547.66,22.18
             558.01,33.38 558.95,73.31 528,71.96
             500.77,70.77 500.31,33.35 512.33,21.33
             515.96,17.70 520.11,16.26 525,15.30 Z
           M 683,72
           C 683,72 683,15 683,15
             691.69,15 705.75,13.68 712.91,18.85
             722.39,25.70 722.28,46.65 719.76,57
             718.80,60.94 717.07,65.57 713.79,68.15
             706.98,73.51 691.61,72 683,72 Z
           M 617,22
           C 617,22 627,53 627,53
             627,53 606,53 606,53
             606,53 617,22 617,22 Z
           M 370,25
           C 370,25 370,26 370,26
             370,26 371,25 371,25
             371,25 370,25 370,25 Z
           M 397,105
           C 397,105 397,118 397,118
             397,118 743,118 743,118
             743,118 743,105 743,105
             743,105 397,105 397,105 Z
           M 581,192
           C 582.37,202.14 585.60,211.09 595,216.47
             609.17,224.58 649,224.82 649.96,196
             650.69,174.15 632.80,170.89 616,166.63
             611.31,165.44 599.09,162.16 602.23,155.04
             605.54,147.56 619.38,147.78 624.89,152.42
             628.77,155.67 628.69,159.12 631.41,160.21
             633.79,161.57 643.46,160.03 647,160.21
             646.14,141.54 633.06,134.07 616,134
             600.14,133.93 582.91,139.78 584.09,159
             584.26,161.66 584.90,164.58 586.05,167
             594.19,184.12 619.83,181.52 628.89,188.65
             637.59,195.49 629.31,205.21 618,205.91
             611.81,206.29 605.59,204.05 601.85,198.91
             599.57,195.76 599.19,192.32 597.30,191.03
             595.26,189.64 583.93,191.61 581,192 Z
           M 404,135
           C 404,135 404,220 404,220
             404,220 421,220 421,220
             421,220 421,156 421,156
             421,156 429.21,188 429.21,188
             429.21,188 436,220 436,220
             436,220 457,220 457,220
             457,220 471,153 471,153
             471,153 472,176 472,176
             472,176 472,220 472,220
             472,220 489,220 489,220
             489,220 489,135 489,135
             489,135 467,135 467,135
             458.21,135.05 459.83,135.94 456.63,149
             456.63,149 447,193 447,193
             447,193 436.87,151 436.87,151
             436.87,151 432.28,135.99 432.28,135.99
             432.28,135.99 425,135 425,135
             425,135 404,135 404,135 Z
           M 496,220
           C 499.88,220 511.61,220.98 514.16,218.40
             519.88,212.62 515.54,201.23 528,201
             528,201 553,201 553,201
             553.62,205.04 556.67,217.67 560.39,219.43
             562.38,220.36 574.03,220 577,220
             577,220 553.42,155 553.42,155
             552.10,151.45 547.93,137.73 545.49,136.02
             543.99,134.97 541.76,135.04 540,135
             540,135 534,135 534,135
             531.98,135.01 529.15,134.87 527.42,136.02
             524.73,137.81 520.63,151.31 519.31,155
             519.31,155 496,220 496,220 Z
           M 659,135
           C 659,135 659,149 659,149
             659,149 684,149 684,149
             684,149 684,220 684,220
             684,220 701,220 701,220
             701,220 701,149 701,149
             701,149 726,149 726,149
             726,149 726,135 726,135
             726,135 659,135 659,135 Z
           M 737,135
           C 737,135 737,220 737,220
             737,220 801,220 801,220
             801,220 801,206 801,206
             801,206 754,206 754,206
             754,206 754,182 754,182
             754,182 796,182 796,182
             796,182 796,168 796,168
             796,168 754,168 754,168
             754,168 754,149 754,149
             754,149 799,149 799,149
             799,149 799,135 799,135
             799,135 737,135 737,135 Z
           M 816,135
           C 816,135 816,220 816,220
             816,220 833,220 833,220
             833,220 833,185 833,185
             836.88,185 841.35,184.72 845,186.15
             851.28,188.60 857.49,197.46 861.25,203
             863.55,206.37 869.54,217.29 872.33,218.98
             874.04,220.01 876.08,219.96 878,220
             878,220 892,220 892,220
             888.48,213.43 875.72,192.75 870.91,188.11
             868.81,186.08 867.51,185.35 865,184
             871.10,180.45 875.76,180.14 880.44,173.98
             888.92,162.85 885.53,143.03 872,137.48
             865.29,134.73 856.17,135 849,135
             849,135 816,135 816,135 Z
           M 833,171
           C 833,171 833,149 833,149
             838.91,149 857.65,148.14 861.98,150.31
             869.84,154.26 869.61,164.95 862.95,168.86
             857.53,172.05 839.95,171 833,171 Z
           M 537,156
           C 537,156 547,187 547,187
             547,187 526,187 526,187
             526,187 537,156 537,156 Z
           M 397,239
           C 397,239 397,251 397,251
             397,251 893,251 893,251
             893,251 893,239 893,239
             893,239 397,239 397,239 Z" />
     <path id="Gradient"
        fill="url(#Gradient)" stroke="none" stroke-width="1"
        d="M 63.33,1.82
           C 63.33,1.82 61.11,2.03 61.11,2.03
             61.11,2.03 56.07,2.67 56.07,2.67
             50.45,3.59 44.90,5.27 39.71,7.62
             34.17,10.14 28.98,13.46 24.35,17.41
             12.68,27.37 4.62,41.62 2.37,56.83
             2.37,56.83 1.78,62.27 1.78,62.27
             1.78,62.27 1.59,64.49 1.59,64.49
             1.59,64.49 1.13,185.89 1.13,185.89
             1.13,185.89 1.31,188.31 1.31,188.31
             1.50,191.25 1.86,194.09 2.42,196.99
             7.42,222.45 27.51,242.69 52.93,247.88
             55.82,248.47 58.66,248.84 61.60,249.06
             61.60,249.06 64.02,249.25 64.02,249.25
             64.02,249.25 323.15,250.22 323.15,250.22
             323.15,250.22 325.58,250.04 325.58,250.04
             328.52,249.85 331.35,249.50 334.25,248.93
             359.71,243.93 379.95,223.84 385.14,198.42
             385.73,195.53 386.11,192.69 386.32,189.75
             386.32,189.75 386.97,66.13 386.97,66.13
             386.97,66.13 386.79,63.71 386.79,63.71
             386.60,60.77 386.24,57.94 385.68,55.04
             380.68,29.57 360.59,9.34 335.17,4.15
             332.27,3.56 329.44,3.18 326.50,2.97
             326.50,2.97 324.08,2.79 324.08,2.79
             324.08,2.79 63.33,1.82 63.33,1.82 Z" />
   <path id="Middlepath"
      fill="skyblue" stroke="none" stroke-width="1"
      d="M 384.31,49.08
         C 384.31,49.08 380.21,38.48 380.21,38.48
            380.21,38.48 376.10,31.71 376.10,31.71
            376.10,31.71 371.29,25.54 371.29,25.54
            371.29,25.54 337.28,33.28 337.28,33.28
            337.28,33.28 288.43,45.60 288.43,45.60
            288.43,45.60 245.43,57.94 245.43,57.94
            245.43,57.94 202.22,72.30 202.22,72.30
            202.22,72.30 155.36,89.87 155.36,89.87
            155.36,89.87 106.48,110.26 106.48,110.26
            106.48,110.26 58.21,131.25 58.21,131.25
            58.21,131.25 15.99,149.65 15.99,149.65
            15.99,149.65 240.32,237.81 240.32,237.81
            240.32,237.81 260.47,187.27 260.47,187.27
            260.47,187.27 275.09,159.89 275.09,159.89
            275.09,159.89 291.93,132.53 291.93,132.53
            291.93,132.53 312.60,105.99 312.60,105.99
            312.60,105.99 329.81,88.91 329.81,88.91
            329.81,88.91 350.24,71.44 350.24,71.44
            350.24,71.44 370.87,57 370.87,57
            370.87,57 384.31,49.08 384.31,49.08 Z" />
  <path id="Innerpath"
        fill="white" stroke="none" stroke-width="1"
        d="M 375.50,31
           C 375.50,31 372.39,26.75 372.39,26.75
             372.39,26.75 323.95,38.67 323.95,38.67
             323.95,38.67 294.27,47.03 294.27,47.03
             294.27,47.03 268.02,54.80 268.02,54.80
             268.02,54.80 234.51,65.36 234.51,65.36
             234.51,65.36 189.27,82.54 189.27,82.54
             189.27,82.54 150.49,98.93 150.49,98.93
             150.49,98.93 106.86,118.73 106.86,118.73
             106.86,118.73 78.98,131.93 78.98,131.93
             78.98,131.93 52.31,144.14 52.31,144.14
             52.31,144.14 110.73,162.71 110.73,162.71
             110.73,162.71 142.26,141.45 142.26,141.45
             142.26,141.45 172.19,121.60 172.19,121.60
             172.19,121.60 198.46,105.36 198.46,105.36
             198.46,105.36 226.76,89.33 226.76,89.33
             226.76,89.33 251,76.92 251,76.92
             251,76.92 279.69,64.12 279.69,64.12
             279.69,64.12 304.73,54.13 304.73,54.13
             304.73,54.13 332.19,44.35 332.19,44.35
             332.19,44.35 375.50,31 375.50,31 Z
           M 377.01,32.92
           C 377.01,32.92 380.21,38.58 380.21,38.58
             380.21,38.58 382.91,45.35 382.91,45.35
             382.91,45.35 355.52,61.18 355.52,61.18
             355.52,61.18 325.20,82.04 325.20,82.04
             325.20,82.04 290.18,115.18 290.18,115.18
             290.18,115.18 270.73,139.11 270.73,139.11
             270.73,139.11 251.06,169.08 251.06,169.08
             251.06,169.08 238.27,192.63 238.27,192.63
             238.27,192.63 235.22,198.67 235.22,198.67
             235.22,198.67 88.61,197.71 88.61,197.71
             88.61,197.71 139.58,158.18 139.58,158.18
             139.58,158.18 184.47,125.07 184.47,125.07
             184.47,125.07 216.21,104.42 216.21,104.42
             216.21,104.42 256.03,81.17 256.03,81.17
             256.03,81.17 285.12,66.96 285.12,66.96
             285.12,66.96 323.29,51.17 323.29,51.17
             323.29,51.17 355.60,39.80 355.60,39.80
             355.60,39.80 377.01,32.92 377.01,32.92 Z" />
    </a>
</svg>
